Coordinates
version=1
nRows=9
nColumns=24
inDegrees=yes

Units are S.I. units (second, meters, Newtons, ...)
Angles are in degrees.

endheader
time	pelvis_tilt	pelvis_list	pelvis_rotation	pelvis_tx	pelvis_ty	pelvis_tz	hip_flexion_r	hip_adduction_r	hip_rotation_r	knee_angle_r	ankle_angle_r	subtalar_angle_r	mtp_angle_r	hip_flexion_l	hip_adduction_l	hip_rotation_l	knee_angle_l	ankle_angle_l	subtalar_angle_l	mtp_angle_l	lumbar_extension	lumbar_bending	lumbar_rotation
      3.53500000	     23.24603339	      5.11890806	     -3.07304970	      0.91440331	      0.95942584	      0.00490661	    -34.56232614	     -6.94020228	     -8.53127199	    -36.86526745	    -12.33385296	     -0.24405132	     52.84553009	     -7.39886356	      8.59124869	    -10.17488710	    -12.68460428	      0.73998368	      3.62260221	     21.30249185	    -30.61212216	     -9.70252276	     -1.49991425
      3.54000000	     23.25742484	      5.40871609	     -3.35979119	      0.92112491	      0.96018416	      0.00451207	    -33.68513348	     -7.67564565	     -8.47912082	    -38.55905419	    -14.34900820	     -0.12688128	     52.61061276	     -7.87074908	      9.02030551	    -10.12855365	    -12.61924058	      1.09096035	      3.58481463	     21.23120729	    -30.49623952	    -10.11115261	     -1.41420777
      3.54500000	     23.25720375	      5.67031606	     -3.64604164	      0.92787653	      0.96093689	      0.00422733	    -32.80605106	     -8.35853401	     -8.37449442	    -40.18573975	    -16.36514519	     -0.37875264	     52.19191934	     -8.38570911	      9.43227494	    -10.03274863	    -12.43701352	      1.43966847	      3.41260583	     20.95279216	    -30.35363814	    -10.49649344	     -1.25033675
      3.55000000	     23.29132485	      5.84414971	     -3.94008053	      0.93459550	      0.96186181	      0.00397050	    -31.96778166	     -8.94580735	     -8.18726171	    -41.68384309	    -18.45885289	     -0.59096262	     51.67462182	     -8.95953058	      9.75199631	    -10.02390928	    -12.21642254	      1.74397286	      3.36117621	     20.66277253	    -30.25146848	    -10.79378489	     -1.07322499
      3.55500000	     23.38680402	      5.90912516	     -4.22675021	      0.94103627	      0.96287674	      0.00377737	    -31.16172327	     -9.38905044	     -7.88906438	    -43.15742211	    -20.37046649	     -0.78235836	     49.08681738	     -9.60323190	      9.94686325	    -10.07600420	    -11.98939724	      2.18856467	      3.68576344	     19.43180285	    -30.24965898	    -10.97192412	     -0.79761916
      3.56000000	     23.47476248	      5.90568889	     -4.49428897	      0.94742749	      0.96393584	      0.00341883	    -30.32112069	     -9.76028756	     -7.56897686	    -44.60158031	    -22.01130693	     -0.93088671	     44.87154348	    -10.28309414	     10.09991328	     -9.99935374	    -11.66519081	      2.52946962	      3.71785503	     18.79871309	    -30.24204486	    -11.05642594	     -0.59115961
      3.56500000	     23.49537477	      5.86832314	     -4.75791721	      0.95372849	      0.96494376	      0.00313380	    -29.38760635	    -10.07549995	     -7.20890348	    -46.00929616	    -23.18460832	     -1.17721859	     44.52519460	    -10.90310650	     10.22012739	     -9.92325616	    -11.28846858	      2.76257824	      3.60011948	     18.70524955	    -30.17105493	    -11.10950518	     -0.33216004
      3.57000000	     23.55912769	      5.79444642	     -5.00216447	      0.96007194	      0.96606392	      0.00287648	    -28.53082695	    -10.31889447	     -6.83964541	    -47.33245355	    -23.54535164	     -1.10453211	     44.57638228	    -11.61367326	     10.30018251	     -9.87915177	    -10.84562533	      2.93133413	      3.48736850	     18.64795979	    -30.14126180	    -11.11791601	     -0.04714310
      3.57500000	     23.57643991	      5.71631845	     -5.20267813	      0.96627955	      0.96707035	      0.00250806	    -27.61478052	    -10.52184083	     -6.51943854	    -48.62867501	    -23.39897597	     -1.21324025	     47.46830406	    -12.26437241	     10.38400725	     -9.72793740	    -10.40797938	      3.15633703	      3.18431228	     18.13579341	    -30.08431173	    -11.09106860	      0.21279417
